HIERARCHY
ROOT Hips
{
     OFFSET 17.68150 94.54450 -26.64510
     CHANNELS 6 Xposition Yposition Zposition Zrotation Xrotation Yrotation
     JOINT Spine
     {
          OFFSET -0.00000 11.89050 -0.00000
          CHANNELS 3 Zrotation Xrotation Yrotation
          JOINT Spine1
          {
               OFFSET -0.00000 25.65740 0.12766
               CHANNELS 3 Zrotation Xrotation Yrotation
               JOINT HEad
               {
                    OFFSET 0.00000 8.73416 0.01134
                    CHANNELS 3 Zrotation Xrotation Yrotation
                    End Site
                    {
                         OFFSET -0.29000 12.77420 2.51395
                    }
               }
               JOINT LeftShoulder1
               {
                    OFFSET 8.99000 -0.36225 -0.22000
                    CHANNELS 3 Zrotation Xrotation Yrotation
                    JOINT LeftArm
                    {
                         OFFSET 10.28270 -0.00338 0.32212
                         CHANNELS 3 Zrotation Xrotation Yrotation
                         JOINT LeftForeArm
                         {
                              OFFSET 32.76690 0.09914 -1.42434
                              CHANNELS 3 Zrotation Xrotation Yrotation
                              JOINT LeftHand
                              {
                                   OFFSET 27.56430 0.08536 1.02216
                                   CHANNELS 3 Zrotation Xrotation Yrotation
                                   End Site
                                   {
                                        OFFSET 16.74430 -0.60000 1.50291
                                   }
                              }
                         }
                    }
               }
               JOINT RightShoulder
               {
                    OFFSET -8.99000 -0.36225 -0.22000
                    CHANNELS 3 Zrotation Xrotation Yrotation
                    JOINT RightArm
                    {
                         OFFSET -10.28270 -0.00338 0.32212
                         CHANNELS 3 Zrotation Xrotation Yrotation
                         JOINT RightForeArm
                         {
                              OFFSET -32.89710 0.09914 -1.42434
                              CHANNELS 3 Zrotation Xrotation Yrotation
                              JOINT RightHand
                              {
                                   OFFSET -27.49210 0.08536 1.02216
                                   CHANNELS 3 Zrotation Xrotation Yrotation
                                   End Site
                                   {
                                        OFFSET -16.63120 -0.60000 1.50291
                                   }
                              }
                         }
                    }
               }
          }
     }
     JOINT LeftUpLeg
     {
          OFFSET 8.94580 -8.66707 0.10165
          CHANNELS 3 Zrotation Xrotation Yrotation
          JOINT LeftLeg
          {
               OFFSET 0.00000 -44.42270 1.37270
               CHANNELS 3 Zrotation Xrotation Yrotation
               JOINT LeftFoot
               {
                    OFFSET -0.25355 -42.09240 -1.46059
                    CHANNELS 3 Zrotation Xrotation Yrotation
                    JOINT LeftToes
                    {
                         OFFSET -0.04000 -4.41509 8.49910
                         CHANNELS 3 Zrotation Xrotation Yrotation
                         End Site
                         {
                              OFFSET 0.08000 -0.04745 9.77979
                         }
                    }
               }
          }
     }
     JOINT RightUpLeg
     {
          OFFSET -8.94580 -8.66707 0.10165
          CHANNELS 3 Zrotation Xrotation Yrotation
          JOINT RightLeg
          {
               OFFSET -0.00000 -44.42270 1.37270
               CHANNELS 3 Zrotation Xrotation Yrotation
               JOINT RightFoot
               {
                    OFFSET 0.25355 -42.09240 -1.46059
                    CHANNELS 3 Zrotation Xrotation Yrotation
                    JOINT RightToes
                    {
                         OFFSET 0.04000 -4.41509 8.49910
                         CHANNELS 3 Zrotation Xrotation Yrotation
                         End Site
                         {
                              OFFSET -0.08000 -0.13745 9.77979
                         }
                    }
               }
          }
     }
}
MOTION
Frames: 12
Frame Time: 0.01667
13.08680 96.27470 14.15290 11.82370 -58.02570 79.90820 3.44480 10.45240 -0.59042 5.72401 20.61370 -3.54647 22.78760 8.34090 -36.25480 -0.00000 0.00000 -0.00000 -42.64030 29.14610 -74.32030 0.10776 6.50469 -87.73160 20.11090 9.22784 0.34674 37.16790 0.39096 -1.14110 46.01300 -20.08320 13.91140 -21.71220 14.55090 11.62430 19.71290 9.18529 -8.34175 57.69550 0.49017 -25.51970 -31.90650 17.98910 81.38000 -2.37594 -5.29564 0.06566 0.09234 -30.66200 -79.00240 -41.08300 -15.44700 -33.92300 74.13650 53.12810 -74.52480 -27.80820 29.76320 9.33948 0.04620 0.00053 0.66264 
13.62150 96.33310 13.91980 13.13480 -56.02060 79.96070 2.83237 10.61240 -0.87099 4.47249 21.26710 -3.76207 21.73080 6.24951 -35.67400 -0.00000 0.00000 -0.00000 -43.17140 28.95830 -74.87750 0.48974 6.03153 -87.52470 20.12990 9.12883 -0.23514 36.67870 0.44204 -0.99845 45.29630 -20.40290 15.43780 -22.61520 14.48150 16.95170 18.28890 9.34255 -7.69859 55.47340 2.59425 -25.84780 -32.06590 16.49380 81.80370 -2.07537 -5.78788 0.05346 -0.16798 -31.08010 -79.13350 -38.22500 -15.34860 -38.25660 77.50330 61.60790 -77.78420 -25.39610 30.32100 8.64219 0.04620 0.00053 0.66264 
14.27050 96.35970 13.64180 14.71440 -53.47260 80.28630 2.03786 10.83460 -1.28256 3.30305 22.06220 -4.23392 20.98790 4.44783 -35.11510 -0.00000 0.00000 -0.00000 -43.82970 28.50220 -75.44400 0.84060 5.73946 -87.44310 20.24720 9.06154 -0.60284 36.14320 0.46279 -0.93179 44.59480 -21.00180 17.17140 -23.69080 14.61440 23.08200 16.73530 9.46256 -7.21287 52.61530 4.91117 -26.50450 -32.15970 14.58110 82.45190 -1.82858 -6.17737 0.04553 -0.48695 -31.54770 -79.49580 -35.92440 -14.17750 -40.52480 80.73520 67.16790 -80.74560 -23.11230 30.47730 7.88512 0.04620 0.00053 0.66264 
14.98140 96.33910 13.23950 15.93820 -50.80500 80.24460 1.46860 11.06880 -1.76372 2.36322 22.80580 -4.82631 20.56410 3.09739 -34.64230 -0.00000 0.00000 -0.00000 -44.56340 27.84150 -75.97520 1.00839 5.52590 -87.40460 20.36390 9.03480 -0.72929 35.56140 0.46271 -0.91853 44.10160 -22.09680 19.14300 -24.78280 14.81910 29.86460 15.36200 9.54549 -6.86874 49.58210 7.27746 -27.17270 -32.22880 12.28550 83.21400 -1.47544 -6.59727 0.03805 -0.71005 -31.84710 -79.86030 -33.74690 -12.41590 -41.48570 82.05080 70.65030 -81.82690 -21.34490 30.30710 7.24045 0.04620 0.00053 0.66264 
15.68420 96.21720 12.71750 16.44490 -48.33710 79.44240 1.19298 11.22590 -2.22175 1.71025 23.31810 -5.38104 20.40710 2.26492 -34.31350 -0.00000 0.00000 -0.00000 -45.33660 27.03300 -76.41690 1.00567 5.36230 -87.37760 20.43950 9.03922 -0.68389 35.03520 0.45147 -0.93684 43.89090 -23.74770 21.37110 -25.60210 14.95860 37.06730 14.47250 9.59649 -6.63232 46.67610 9.36061 -27.46760 -32.39860 10.02620 84.00750 -1.00657 -7.24553 0.03190 -0.77849 -31.91680 -80.07640 -31.51530 -10.41040 -41.07810 80.64190 71.92670 -80.25590 -20.55980 29.88560 6.89011 0.04620 0.00053 0.66264 
16.33110 96.02510 12.10460 16.14350 -46.19840 77.80000 1.20905 11.26270 -2.62024 1.36702 23.51910 -5.81104 20.40820 1.83922 -34.17820 -0.00000 0.00000 -0.00000 -46.15200 26.11300 -76.75130 0.94740 5.27396 -87.37470 20.50270 9.05814 -0.55789 34.57300 0.42214 -1.00756 44.07750 -25.79250 23.90920 -25.84610 14.97890 44.42310 14.22180 9.61370 -6.53855 43.89280 10.65500 -27.04940 -32.76410 8.69236 84.94290 -0.71132 -8.21411 0.03067 -0.80141 -31.93030 -80.19690 -29.09050 -8.43501 -39.50840 76.91740 71.25770 -76.47960 -20.68600 29.06220 6.77320 0.04620 0.00053 0.66264 
16.93500 95.79950 11.42380 15.16230 -44.33710 75.45840 1.44242 11.18940 -2.95440 1.30844 23.44610 -6.11821 20.46780 1.60867 -34.26070 -0.00000 0.00000 -0.00000 -46.98340 25.10820 -77.04770 0.95223 5.24955 -87.42150 20.60290 9.08157 -0.39769 34.04990 0.36525 -1.15663 44.83970 -27.92960 26.81630 -25.37110 14.99350 51.72070 14.52400 9.58787 -6.68964 41.35260 11.52370 -26.01890 -33.14020 7.50772 85.94280 -0.22503 -9.25501 0.03736 -0.91799 -32.08430 -80.38020 -26.51310 -6.57753 -37.08200 72.32820 69.07670 -71.95120 -21.36980 27.60570 6.70920 0.04620 0.00053 0.66264 
17.53670 95.54200 10.72460 13.77090 -42.53250 72.65950 1.66099 11.05460 -3.20875 1.44487 23.20330 -6.35426 20.53880 1.42854 -34.48750 -0.00000 0.00000 -0.00000 -47.75710 24.04010 -77.40910 1.06803 5.24984 -87.52960 20.78010 9.10554 -0.21820 33.40580 0.29347 -1.35126 46.21990 -29.88750 30.07610 -24.30140 15.25410 58.85800 15.06390 9.51431 -7.14523 38.81470 12.03230 -24.42940 -33.42950 6.57316 86.96670 0.18955 -10.19320 0.05054 -1.11166 -32.34350 -80.65340 -24.29580 -4.43058 -32.80840 69.46010 64.18940 -69.13840 -22.93040 25.62420 6.78538 0.04620 0.00053 0.66264 
18.17560 95.27690 10.00730 12.19570 -40.65460 69.63300 1.83304 10.89630 -3.41577 1.67773 22.87640 -6.56733 20.57900 1.24432 -34.69650 -0.00000 0.00000 -0.00000 -48.41670 22.91230 -77.89320 1.24865 5.27548 -87.68340 21.04800 9.12504 -0.04731 32.72480 0.23535 -1.51286 48.06270 -31.52180 33.59760 -22.96450 15.98530 65.80650 15.49300 9.40737 -7.82974 36.14080 12.23700 -22.47040 -33.59330 5.87163 87.88620 0.29361 -10.96110 0.05959 -1.19537 -32.44450 -80.81870 -22.48720 -2.22729 -27.72780 67.67870 58.18910 -67.50920 -24.36170 22.93630 6.61442 0.04620 0.00053 0.66264 
18.87010 95.02380 9.26514 10.54450 -38.65950 66.49280 2.00059 10.72020 -3.60693 1.93248 22.48840 -6.77516 20.52960 1.04696 -34.76790 -0.00000 0.00000 -0.00000 -48.98410 21.70360 -78.48770 1.40978 5.39035 -87.86120 21.38810 9.13574 0.08531 32.09070 0.21051 -1.58176 50.19070 -32.78850 37.28490 -21.69500 17.23550 72.54280 15.67860 9.29717 -8.56319 33.32640 12.16830 -20.37950 -33.66070 5.26462 88.57020 -0.02765 -11.57810 0.05385 -0.95401 -32.09850 -80.59940 -21.03640 -0.22877 -22.87790 66.12740 52.50250 -66.24540 -25.10370 19.66730 6.06945 0.04620 0.00053 0.66264 
19.61180 94.78360 8.49982 8.85782 -36.56780 63.25230 2.18754 10.52170 -3.78512 2.19286 22.03790 -6.97067 20.35850 0.89829 -34.68810 -0.00000 0.00000 -0.00000 -49.55120 20.39300 -79.14300 1.51601 5.67063 -88.05960 21.76140 9.13609 0.16376 31.49460 0.22288 -1.54048 52.50490 -33.66780 41.07310 -20.64930 18.85410 78.98940 15.74070 9.20914 -9.16229 30.44280 11.82240 -18.29350 -33.66920 4.69513 88.96980 -0.80048 -12.07390 0.02655 -0.31914 -31.19790 -79.86040 -19.92790 1.48830 -18.52780 64.71870 47.50360 -65.30940 -25.28270 16.21900 5.31968 0.04620 0.00053 0.66264 
20.37700 94.55830 7.71282 7.18683 -34.46670 59.91910 2.43161 10.31370 -3.95044 2.49201 21.56450 -7.14594 20.08110 0.92839 -34.48590 -0.00000 0.00000 -0.00000 -50.20490 18.98500 -79.83550 1.60970 6.11989 -88.28520 22.11420 9.12556 0.17727 30.89640 0.26855 -1.39489 54.91090 -34.09210 44.91720 -19.77160 20.57150 84.96380 15.85140 9.15824 -9.48273 27.62110 11.26940 -16.24650 -33.60380 4.11534 89.13800 -1.85629 -12.45340 -0.01869 0.54638 -29.93080 -78.72980 -19.07960 2.95118 -14.77650 63.41220 43.33210 -64.75130 -25.14100 12.99790 4.55365 0.04620 0.00053 0.66264 
